<?xml version="1.0" encoding="iso-8859-1"?>
<!-- Uploaded to: SVG Repo, www.svgrepo.com, Generator: SVG Repo Mixer Tools -->
<svg version="1.1" id="Layer_1" xmlns="http://www.w3.org/2000/svg" xmlns:xlink="http://www.w3.org/1999/xlink" 
	 viewBox="0 0 512 512" xml:space="preserve">
<path d="M469.28,396.8V102.4c0-7.04-5.76-12.8-12.8-12.8H55.52c-7.04,0-12.8,5.76-12.8,12.8v294.4
	C42.72,396.8,470.32,396.8,469.28,396.8z"/>
<rect y="396.8" style="fill:#D8D8D8;" width="512" height="8.56"/>
<polygon style="fill:#999999;" points="486.4,422.4 25.6,422.4 0,405.36 512,405.36 "/>
<g>
	<circle style="fill:#FFFFFF;" cx="162.16" cy="124.08" r="8.56"/>
	<circle style="fill:#FFFFFF;" cx="128" cy="124.08" r="8.56"/>
	<circle style="fill:#FFFFFF;" cx="93.92" cy="124.08" r="8.56"/>
</g>
<g>
	<rect x="187.76" y="119.84" style="fill:#999999;" width="238.96" height="8.56"/>
	<rect x="247.44" y="209.44" style="fill:#999999;" width="162.16" height="25.6"/>
	<rect x="247.44" y="252.08" style="fill:#999999;" width="162.16" height="25.6"/>
</g>
<rect x="247.44" y="183.84" style="fill:#FF6600;" width="162.16" height="8.56"/>
<rect x="102.4" y="311.84" style="fill:#FFFFFF;" width="307.2" height="8.56"/>
<rect x="102.4" y="337.44" style="fill:#999999;" width="307.2" height="8.56"/>
<path style="fill:#FF6600;" d="M208.72,277.68h-99.6c-3.68,0-6.72-3.04-6.72-6.72v-80.48c0-3.68,3.04-6.72,6.72-6.72h99.6
	c3.68,0,6.72,3.04,6.72,6.72v80.48C215.44,274.64,212.4,277.68,208.72,277.68z"/>
<g>
	<polygon style="fill:#FFFFFF;" points="145.2,206.64 186.32,230.32 145.2,254.08 	"/>
	<path style="opacity:0.2;fill:#FFFFFF;enable-background:new    ;" d="M341.6,89.6H55.52c-7.04,0-12.8,5.76-12.8,12.8v138.8
		L341.6,89.6z"/>
</g>
</svg>